HIERARCHY
ROOT root
{
	OFFSET 0.000000 0.000000 0.000000
	CHANNELS 6 Xposition Yposition Zposition Zrotation Yrotation Xrotation
	JOINT lhip
	{
		OFFSET 0.058581 -0.082280 -0.017664
		CHANNELS 3 Zrotation Yrotation Xrotation
		JOINT lknee
		{
			OFFSET 0.043451 -0.386469 0.008037
			CHANNELS 3 Zrotation Yrotation Xrotation
			JOINT lankle
			{
				OFFSET -0.014790 -0.426874 -0.037428
				CHANNELS 3 Zrotation Yrotation Xrotation
				JOINT ltoe
				{
					OFFSET 0.041054 -0.060286 0.122042
					CHANNELS 3 Zrotation Yrotation Xrotation
					End Site
					{
						OFFSET 0.000000 0.000000 0.000000
					}
				}
			}
		}
	}
	JOINT rhip
	{
		OFFSET -0.060310 -0.090513 -0.013543
		CHANNELS 3 Zrotation Yrotation Xrotation
		JOINT rknee
		{
			OFFSET -0.043257 -0.383688 -0.004843
			CHANNELS 3 Zrotation Yrotation Xrotation
			JOINT rankle
			{
				OFFSET 0.019056 -0.420046 -0.034562
				CHANNELS 3 Zrotation Yrotation Xrotation
				JOINT rtoe
				{
					OFFSET -0.034840 -0.062106 0.130323
					CHANNELS 3 Zrotation Yrotation Xrotation
					End Site
					{
						OFFSET 0.000000 0.000000 0.000000
					}
				}
			}
		}
	}
	JOINT lowerback
	{
		OFFSET 0.004439 0.124404 -0.038385
		CHANNELS 3 Zrotation Yrotation Xrotation
		JOINT upperback
		{
			OFFSET 0.004488 0.137956 0.026820
			CHANNELS 3 Zrotation Yrotation Xrotation
			JOINT chest
			{
				OFFSET -0.002265 0.056032 0.002855
				CHANNELS 3 Zrotation Yrotation Xrotation
				JOINT lowerneck
				{
					OFFSET -0.013390 0.211636 -0.033468
					CHANNELS 3 Zrotation Yrotation Xrotation
					JOINT upperneck
					{
						OFFSET 0.010113 0.088937 0.050410
						CHANNELS 3 Zrotation Yrotation Xrotation
						End Site
						{
							OFFSET 0.000000 0.000000 0.000000
						}
					}
				}
				JOINT lclavicle
				{
					OFFSET 0.071702 0.114000 -0.018898
					CHANNELS 3 Zrotation Yrotation Xrotation
					JOINT lshoulder
					{
						OFFSET 0.122921 0.045205 -0.019046
						CHANNELS 3 Zrotation Yrotation Xrotation
						JOINT lelbow
						{
							OFFSET 0.255332 -0.015649 -0.022946
							CHANNELS 3 Zrotation Yrotation Xrotation
							JOINT lwrist
							{
								OFFSET 0.265709 0.012698 -0.007375
								CHANNELS 3 Zrotation Yrotation Xrotation
								End Site
								{
									OFFSET 0.000000 0.000000 0.000000
								}
							}
						}
					}
				}
				JOINT rclavicle
				{
					OFFSET -0.082954 0.112472 -0.023707
					CHANNELS 3 Zrotation Yrotation Xrotation
					JOINT rshoulder
					{
						OFFSET -0.113228 0.046853 -0.008472
						CHANNELS 3 Zrotation Yrotation Xrotation
						JOINT relbow
						{
							OFFSET -0.260127 -0.014369 -0.031269
							CHANNELS 3 Zrotation Yrotation Xrotation
							JOINT rwrist
							{
								OFFSET -0.269108 0.006794 -0.006027
								CHANNELS 3 Zrotation Yrotation Xrotation
								End Site
								{
									OFFSET 0.000000 0.000000 0.000000
								}
							}
						}
					}
				}
			}
		}
	}
}
MOTION
Frames: 18
Frame Time: 0.033333
1.168505 0.178786 0.992427 -88.974127 2.110202 85.393211 -0.216910 -1.335284 6.678419 -3.047300 -17.093922 1.701291 6.068228 8.894382 -16.001959 0.000000 -0.000000 0.000000 3.226318 -3.342486 3.571181 4.297883 2.848034 6.997202 3.583457 -4.452294 -10.591595 0.000000 -0.000000 0.000000 -2.715681 2.058993 5.086312 2.692214 -3.027783 3.081639 1.895036 -1.443144 4.203178 4.584227 2.841925 7.715507 3.634179 -1.983753 10.751890 -17.707707 2.026580 2.920214 -47.788464 -12.766408 5.886361 16.786080 -46.196005 -3.051252 1.012134 -1.577284 -10.763326 21.913982 -3.081485 2.902033 62.963044 -0.713672 9.436512 -14.794393 25.430558 -3.137757 8.971155 -0.259797 -9.165462 
1.168493 0.178709 0.991943 -88.790836 2.246151 85.493157 -0.022312 -1.454476 6.522331 -3.186840 -17.004800 1.795551 6.071950 8.716563 -16.182794 0.000000 -0.000000 0.000000 3.443029 -3.141332 3.459271 4.229582 2.776936 7.003176 3.517988 -4.593066 -10.650662 0.000000 -0.000000 0.000000 -2.700094 1.986681 4.870809 2.743970 -2.948346 2.974334 1.985053 -1.529064 4.497357 4.626447 2.542246 7.426565 3.393032 -2.238421 10.932747 -17.804634 2.143111 3.552907 -50.518950 -12.089581 6.951140 17.093068 -45.219744 -1.609503 1.211344 -1.795109 -11.468778 21.886335 -3.335087 2.986759 63.117908 -0.292359 9.570580 -14.928431 25.408696 -2.608583 8.361429 -0.223131 -9.259202 
1.168054 0.178115 0.991597 -88.679529 2.244204 85.385725 0.020725 -1.333244 6.700566 -3.311882 -17.027788 1.750301 5.988395 8.608121 -16.272437 0.000000 -0.000000 0.000000 3.340171 -3.226769 3.508369 4.310467 2.613742 7.138399 3.483057 -4.497520 -10.607496 0.000000 -0.000000 0.000000 -2.712256 1.994578 4.891765 2.709769 -2.929632 3.047780 1.991283 -1.514857 4.513054 4.738329 2.370840 7.306696 3.329882 -2.297048 11.015614 -18.199133 2.252692 3.944105 -52.725575 -11.208697 7.726070 16.888829 -43.885350 -0.310883 1.274706 -1.990212 -11.790669 21.880723 -3.396851 3.117168 63.284349 0.050700 9.610237 -14.981489 25.412059 -2.469739 7.882742 -0.231655 -9.539103 
1.167492 0.177595 0.991416 -88.526760 2.265872 85.302280 0.038200 -1.275024 6.926437 -3.311655 -16.998107 1.563675 5.794705 8.430123 -16.336746 0.000000 -0.000000 0.000000 3.391040 -3.125831 3.533176 4.265548 2.511466 7.153207 3.387553 -4.446784 -10.546786 0.000000 -0.000000 0.000000 -2.731155 2.031670 4.966353 2.663290 -2.939337 3.121835 1.994521 -1.677564 4.348812 4.781797 2.512101 7.309985 3.228607 -1.926578 11.116809 -18.909694 2.155125 4.391831 -54.935870 -10.273169 8.419951 16.210419 -41.634148 1.020842 0.983986 -2.186994 -11.812397 21.813805 -3.392236 3.297288 63.584028 0.273718 9.752060 -14.815850 25.323499 -2.457409 7.967574 -0.563917 -10.262096 
1.167505 0.177254 0.991352 -88.456409 2.293140 85.324894 0.068265 -1.251944 6.917445 -3.362761 -16.897530 1.568946 5.921058 8.354717 -16.446062 0.000000 -0.000000 0.000000 3.430957 -3.201942 3.381499 4.248588 2.573850 7.293305 3.335924 -4.378841 -10.635541 0.000000 -0.000000 0.000000 -2.789481 2.084773 4.906832 2.681709 -2.902768 3.157875 2.046305 -1.757454 4.419627 4.827248 2.257515 6.999162 3.060255 -2.092720 11.091980 -19.530147 2.319458 4.395272 -56.081954 -9.714047 8.698170 15.610153 -40.095459 1.784394 0.809033 -2.280322 -11.657262 21.867341 -3.425190 3.381938 63.556112 0.550875 9.823419 -14.776637 25.236503 -2.549216 7.813830 -0.660064 -10.388036 
1.167473 0.176633 0.991258 -88.363439 2.407236 85.377367 0.170532 -1.226146 6.854990 -3.433072 -16.879025 1.648598 5.872536 8.214534 -16.488067 0.000000 -0.000000 0.000000 3.538421 -3.107776 3.211271 4.272205 2.474068 7.421819 3.257653 -4.356238 -10.561312 0.000000 -0.000000 0.000000 -2.686583 2.030430 4.865755 2.635752 -2.856059 3.161520 2.048746 -1.755000 4.430436 4.792971 2.305798 6.984118 2.961906 -1.908420 11.092074 -20.115409 2.378462 4.557159 -57.630247 -9.114210 8.965811 14.828730 -37.921507 2.716204 0.417623 -2.379194 -11.415172 21.866048 -3.509267 3.435568 63.698752 0.831897 9.825250 -14.812212 25.173772 -2.633337 7.733055 -0.598461 -10.552697 
1.167190 0.175995 0.991367 -88.294447 2.408416 85.235638 0.151301 -1.095459 7.118856 -3.398057 -17.008404 1.480790 5.828744 8.185830 -16.586423 0.000000 -0.000000 0.000000 3.559273 -2.954449 3.358462 4.204696 2.422476 7.423707 3.217649 -4.389951 -10.632273 0.000000 -0.000000 0.000000 -2.672820 2.042854 4.967667 2.555047 -2.847460 3.287033 1.993521 -1.798278 4.349638 4.990855 2.047364 6.921736 2.926294 -2.041296 11.211086 -20.877829 2.462285 4.659920 -58.943290 -8.587441 9.103956 13.980633 -35.516792 3.463175 -0.061233 -2.445774 -10.980668 21.908924 -3.479727 3.517761 63.872714 0.930359 9.889460 -14.973910 25.178044 -2.762866 7.697717 -0.543432 -10.688976 
1.167200 0.175600 0.991350 -88.337787 2.452448 85.280521 0.216983 -1.080674 7.084432 -3.499496 -16.918972 1.501505 5.944003 8.149956 -16.524004 0.000000 -0.000000 0.000000 3.622154 -2.738158 3.287402 4.209964 2.367476 7.439823 3.015842 -4.493293 -10.682312 0.000000 -0.000000 0.000000 -2.618356 2.072359 4.774422 2.521066 -2.826728 3.437916 1.937335 -1.874818 4.330442 5.076673 1.886889 7.112863 2.837461 -1.961164 11.286514 -21.879902 2.399422 4.801185 -60.101885 -8.278299 9.186492 13.118416 -32.881434 3.975809 -0.688433 -2.389255 -10.464294 21.895013 -3.319136 3.810142 63.960676 1.080829 10.011687 -15.093906 25.131229 -2.940015 7.785390 -0.633883 -11.010936 
1.167607 0.174674 0.991562 -88.297694 2.424312 85.292535 0.067615 -1.136366 6.997652 -3.431206 -16.942134 1.657413 6.017653 8.191981 -16.652533 0.000000 -0.000000 0.000000 3.528541 -2.853514 3.124540 4.196091 2.364487 7.717665 2.964853 -4.412236 -10.856967 0.000000 -0.000000 0.000000 -2.547818 2.118498 4.754166 2.430497 -2.827423 3.446956 1.835292 -1.956278 4.395711 5.184610 1.769197 7.465339 2.820418 -1.887497 11.428346 -22.738441 2.612843 4.752272 -61.188429 -7.948413 9.193555 12.253341 -30.273903 4.421991 -1.230437 -2.305909 -9.876368 21.797595 -3.353067 3.839140 64.067740 1.120124 10.157302 -14.982534 25.130401 -2.992621 7.733173 -0.548437 -11.172710 
1.167990 0.173858 0.991966 -88.521266 2.471121 85.241545 0.120957 -0.970509 6.969924 -3.525134 -16.829253 1.825312 5.993051 8.118878 -16.665136 0.000000 -0.000000 0.000000 3.524879 -2.921308 3.128076 4.175319 2.413634 7.878530 2.881224 -4.341251 -10.832889 0.000000 -0.000000 0.000000 -2.340989 2.160347 4.780102 2.306106 -2.721023 3.506376 1.659111 -1.956063 4.436445 5.284509 1.538833 7.530293 2.706126 -1.884712 11.635626 -23.923500 3.124333 4.501073 -62.262236 -7.564975 9.014509 11.183666 -26.960061 4.887830 -2.010977 -2.195015 -8.949257 21.723708 -3.690773 3.640419 64.146800 1.057387 10.383748 -14.823383 25.280836 -2.829025 7.857594 -0.459946 -11.166777 
1.168866 0.173068 0.992559 -88.810229 2.477498 85.247321 0.081117 -0.964513 6.964721 -3.480798 -16.787972 1.728251 6.031918 8.220165 -16.515069 0.000000 -0.000000 0.000000 3.408475 -2.763388 3.124687 4.284814 2.439463 7.917198 2.921624 -4.338196 -10.839093 0.000000 -0.000000 0.000000 -2.142294 2.137739 4.782250 2.174878 -2.683701 3.521879 1.462877 -1.931740 4.502118 5.336136 1.279057 7.788979 2.715450 -1.982164 11.815031 -24.845369 3.331561 4.371157 -62.947405 -7.457074 8.989934 10.307047 -24.403796 5.058511 -2.761884 -2.053663 -8.240957 21.756318 -3.692104 3.494433 64.106909 0.884178 10.624452 -14.869682 25.139571 -3.049636 7.988487 -0.103673 -11.451643 
1.169571 0.172730 0.992398 -88.857653 2.537744 85.373456 0.181390 -0.959442 6.711832 -3.583406 -16.809420 1.834096 6.016912 8.207586 -16.434245 0.000000 -0.000000 0.000000 3.402490 -2.716131 2.976125 4.371869 2.395673 7.930850 2.904475 -4.405706 -10.805859 0.000000 -0.000000 0.000000 -2.166773 2.099332 4.572401 2.275320 -2.744375 3.616409 1.475040 -1.941351 4.536763 5.437945 0.792564 8.470452 2.737934 -2.280501 12.088924 -24.560921 3.491194 4.493440 -63.276020 -7.427411 9.131572 10.411007 -24.771063 5.331568 -2.820948 -1.969469 -8.541064 21.656976 -3.784100 3.545199 63.991437 0.839521 10.650841 -14.848051 25.390790 -2.858155 8.037309 -0.077423 -11.481421 
1.170157 0.172212 0.992437 -88.934260 2.547202 85.340813 0.155877 -0.930825 6.714888 -3.562594 -16.718282 1.803892 6.016317 8.205345 -16.476288 0.000000 -0.000000 0.000000 3.339658 -2.761322 2.966090 4.377233 2.424923 7.956105 3.020998 -4.314184 -10.899733 0.000000 -0.000000 0.000000 -2.186684 2.107880 4.611366 2.331857 -2.787908 3.812705 1.461517 -1.982862 4.506270 5.455596 0.704778 8.304999 2.562423 -2.531695 12.296079 -24.585734 3.499184 4.404561 -63.269828 -7.418128 9.197879 10.465260 -24.823822 5.296955 -2.821704 -2.018260 -8.607650 21.763777 -3.725980 3.497622 63.830162 0.928022 10.783888 -14.763442 25.434389 -2.728713 8.002407 -0.222778 -11.310369 
1.170500 0.171615 0.992614 -88.940892 2.543029 85.243819 0.139146 -0.884239 6.827454 -3.569946 -16.704612 1.725162 5.954014 8.111534 -16.382356 0.000000 -0.000000 0.000000 3.281848 -2.838022 3.063516 4.352715 2.390804 7.925782 3.071428 -4.206805 -10.845977 0.000000 -0.000000 0.000000 -2.240801 2.085789 4.689040 2.399434 -2.887573 3.969139 1.486189 -1.982704 4.494038 5.544330 0.197273 8.703243 2.587433 -2.976381 12.545183 -24.692211 3.394831 4.530556 -63.224719 -7.523565 9.194638 10.570440 -24.814633 5.050748 -2.950995 -1.969483 -8.598371 21.754418 -3.625823 3.566785 63.800848 0.929543 10.695373 -14.847444 25.445594 -2.900239 8.107585 -0.193192 -11.326681 
1.170619 0.171195 0.992818 -88.978584 2.571104 85.142553 0.166162 -0.774397 6.987937 -3.538623 -16.741052 1.597187 5.892994 8.060847 -16.369157 0.000000 -0.000000 0.000000 3.299119 -2.871601 3.195741 4.324359 2.404514 7.881587 3.116245 -4.178449 -10.887851 0.000000 -0.000000 0.000000 -2.218747 2.003521 4.823625 2.372231 -2.942343 4.048073 1.473461 -1.947254 4.536506 5.558555 0.323650 8.719696 2.532451 -2.941846 12.595971 -24.693951 3.410167 4.520954 -63.095022 -7.455434 9.205409 10.443920 -25.015398 5.079511 -2.720713 -1.979018 -8.547725 21.847493 -3.624129 3.597963 63.724418 0.889485 10.626869 -14.824730 25.543782 -3.093460 7.913584 -0.225007 -11.364255 
1.170966 0.170947 0.992914 -89.062523 2.624188 85.102866 0.215941 -0.707325 7.011398 -3.536187 -16.791990 1.596063 5.886086 8.100084 -16.408315 0.000000 -0.000000 0.000000 3.358562 -2.856432 3.231753 4.294868 2.408802 7.840544 3.135452 -4.177035 -10.821371 0.000000 -0.000000 0.000000 -2.232672 2.000177 4.934501 2.411570 -2.932219 4.093673 1.507700 -1.913124 4.573915 5.586099 0.267861 8.896818 2.623914 -3.023316 12.573840 -24.643659 3.403581 4.515177 -63.092261 -7.478424 9.209531 10.359108 -25.074142 4.991497 -2.593153 -1.971221 -8.568098 21.877998 -3.586616 3.673372 63.691257 0.846202 10.544880 -14.855151 25.674247 -3.281955 7.878341 -0.283799 -11.446241 
1.171430 0.170347 0.992951 -89.224237 2.630929 85.153584 0.203500 -0.661792 6.958240 -3.542031 -16.718018 1.527859 5.867191 8.082551 -16.323669 0.000000 -0.000000 0.000000 3.312036 -2.872652 3.143337 4.310964 2.446290 7.845355 3.142373 -4.058201 -10.890744 0.000000 -0.000000 0.000000 -2.236052 2.019440 4.938915 2.448667 -2.912042 4.117179 1.546142 -1.910231 4.571757 5.419315 0.105315 8.985492 2.414418 -3.240365 12.807075 -24.573034 3.412807 4.524235 -63.167242 -7.393295 9.228813 10.322702 -25.176996 5.066843 -2.536769 -2.079799 -8.532172 21.857605 -3.630897 3.848183 63.607093 0.651015 10.682169 -14.832410 26.050718 -2.875515 7.800895 -0.060951 -11.134684 
1.171763 0.170162 0.992957 -89.359118 2.627306 85.247541 0.196015 -0.606447 6.873538 -3.532661 -16.663575 1.445984 5.846444 8.129483 -16.277478 0.000000 -0.000000 0.000000 3.311226 -2.884007 3.015340 4.287698 2.496710 7.822027 3.104799 -4.007958 -10.798077 0.000000 -0.000000 0.000000 -2.234700 2.060011 4.973594 2.448580 -2.898406 4.063846 1.543542 -1.894572 4.501108 5.413385 -0.020072 9.330521 2.474947 -3.233190 12.729982 -24.514378 3.399823 4.565585 -63.216400 -7.349670 9.225569 10.314754 -25.015162 5.174981 -2.623493 -2.058998 -8.559164 21.831028 -3.686171 3.891769 63.654413 0.569904 10.652994 -14.769998 26.027318 -2.785659 7.853221 -0.057585 -11.145684 
